# xmcd
#
# Track frame offsets:
#	183
#	12783
#	26358
#	39708
#	54633
#	70158
#	83058
#	96333
#	114783
#	129333
#
# Disc length: 1901 seconds
#
# Revision: 3
# Processed by: cddbd v1.5.2PL0 Copyright (c) Steve Scherf et al.
# Submitted via: audiograbber 1.83.01
#
DISCID=74076b0a
DTITLE=Johnny Cash - Water from the Wells of Home
DYEAR=1988
DGENRE=Country
TTITLE0=Ballad of a Teenage Queen
TTITLE1=As Long As I Live
TTITLE2=Where Did We Go Right
TTITLE3=The Last of The Drifters
TTITLE4=Call Me The Breeze
TTITLE5=That Old Wheel
TTITLE6=Sweeter Than The Flowers
TTITLE7=A Croft in Clachan (The Ballad of Rob MacDunn)
TTITLE8=New Moon Over Jamaica
TTITLE9=Water From The Wells of Home
EXTD=
EXTT0=
EXTT1=
EXTT2=
EXTT3=
EXTT4=
EXTT5=
EXTT6=
EXTT7=
EXTT8=
EXTT9=
PLAYORDER=
